# xmcd
#
# Track frame offsets:
#   150
#   18195
#   37042
#   54909
#   67981
#   86954
#   105742
#   126833
#   146115
#   165581
#   180359
#   194853
#   209588
#   230607
#
# Disc length: 3299 seconds
#
# Revision: 0
# Processed by: cddbd v1.5.2PL0 Copyright (c) Steve Scherf et al.
# Submitted via: GXTranscoder 2.0.1939
#
DISCID=cb0ce10e
DTITLE=Stunksitzung - Dat beste 3
DYEAR=1900
DGENRE=Alternative
TTITLE0=Kölsche Amore
TTITLE1=Brauchtum
TTITLE2=Bohemian Rhapsody
TTITLE3=Jeck Päck
TTITLE4=Bratschenmann
TTITLE5=Ze dick für Alaaf
TTITLE6=Nena wir sind alt
TTITLE7=Der da, die da
TTITLE8=Die Töchter Bergheims - Wir sind da
TTITLE9=Wenn ich danze
TTITLE10=Das gibt's es nur an einem Ort
TTITLE11=Tambourcorps
TTITLE12=sing noch ens Alaaf
TTITLE13='ne Besuch em Zoo
EXTD=
EXTT0=
EXTT1=
EXTT2=
EXTT3=
EXTT4=
EXTT5=
EXTT6=
EXTT7=
EXTT8=
EXTT9=
EXTT10=
EXTT11=
EXTT12=
EXTT13=
PLAYORDER=
